# xmcd
#
# Track frame offsets:
#	150
#	13775
#	26932
#	38495
#	48693
#	64878
#	77284
#	91449
#	103273
#	118083
#	130971
#	144836
#	153943
#	166535
#	176094
#	186074
#	197629
#	210478
#	223879
#	237331
#	247758
#	259350
#	270466
#	279664
#	289913
#	299872
#	311789
#	323054
#	334030
#
# Disc length: 4741 seconds
#
# Revision: 0
# Processed by: cddbd v1.4PL0 Copyright (c) Steve Scherf et al.
# Submitted via: audiograbber 1.80.04
#
DISCID=b712831d
DTITLE=davis sisters - Memories
DYEAR=1900
DGENRE=
TTITLE0=Forgot More Than You'Ll Ever Know
TTITLE1=Sorrow And Pain
TTITLE2=Rock-A-Bye Boogie
TTITLE3=You'Re Gone
TTITLE4=Sorrow And Pain (Fast Version)
TTITLE5=You'Re Gone (Swinging Version)
TTITLE6=Heartbreak Ahead (Overdub)
TTITLE7=Jealous Love
TTITLE8=Sorrow And Pain
TTITLE9=Kaw-Liga
TTITLE10=Heartbreak Ahead
TTITLE11=Rag Mop
TTITLE12=Your Cheatin' Heart
TTITLE13=Crying Steel Guitar Waltz
TTITLE14=Just When I Needed You
TTITLE15=It Wasn'T God Who Made Honky Tonk Angels
TTITLE16=Tomorrow'S Just Another Day To Cry
TTITLE17=Tomorrow I'Ll Cry
TTITLE18=Jambalaya
TTITLE19=Takin' Time Out For Tears
TTITLE20=Rock-A-Bye Boogie
TTITLE21=Takin' Time Out For Tears
TTITLE22=Gotta Git A-Goin'
TTITLE23=You Weren'T Ashamed To Kiss Me Last Night
TTITLE24=Foggy Mountain Top
TTITLE25=Just Like Me
TTITLE26=Don'T Take Him For Granted
TTITLE27=I'Ve Closed The Door
TTITLE28=Rock-A-Bye Boogie-I Forgot More Than You'Ll Ever Know-Gotta Git A-Goin
TTITLE28='
EXTD=
EXTT0=
EXTT1=
EXTT2=
EXTT3=
EXTT4=
EXTT5=
EXTT6=
EXTT7=
EXTT8=
EXTT9=
EXTT10=
EXTT11=
EXTT12=
EXTT13=
EXTT14=
EXTT15=
EXTT16=
EXTT17=
EXTT18=
EXTT19=
EXTT20=
EXTT21=
EXTT22=
EXTT23=
EXTT24=
EXTT25=
EXTT26=
EXTT27=
EXTT28=
PLAYORDER=
